<svg width="70" height="44" viewBox="0 0 70 44" fill="none" xmlns="http://www.w3.org/2000/svg">
<path d="M39.8898 10.9278C39.8898 7.76952 38.7023 5.15766 36.314 3.0922C33.9325 1.02673 30.9203 0 26.2712 0C23.8963 0 21.8636 0.336239 20.1663 1.00872C18.469 1.68119 17.087 2.6779 16.027 3.98683C14.967 5.29576 14.3029 6.63471 14.0278 7.98567C13.7595 9.34264 13.6253 11.1919 13.6253 13.5396V15.0707H24.0975V11.5822C24.0975 9.73892 24.3189 8.50204 24.7483 7.8776C25.1844 7.25916 25.8418 6.94693 26.7341 6.94693C27.6263 6.94693 28.2838 7.22914 28.7198 7.78753C29.1559 8.34593 29.3706 9.19853 29.3706 10.3393C29.3706 11.8224 28.6527 13.8939 27.2171 16.5417C25.7814 19.1896 21.2531 25.8604 13.632 37.0103V43.3328H39.3464V35.3411H26.5328C33.0939 26.6589 36.5354 21.2131 37.8772 18.5352C39.2189 15.8633 39.8898 13.3235 39.8898 10.9218V10.9278Z" fill="white"/>
<path d="M16.3625 19.9523H10.9083V15.0708H5.45415V19.9523H0V24.8337H5.45415V29.7152H10.9083V24.8337H16.3625V19.9523Z" fill="white"/>
<path d="M66.3019 27.3557V0.354492H51.2073L41.1108 27.3557V35.3413H55.8095V43.333H66.2951V35.3413H69.6226V27.3557H66.2951H66.3019ZM55.8162 27.3557H49.8857L55.8162 11.4984V27.3557Z" fill="white"/>
</svg>
