<svg  viewBox="0 0 223 220" fill="none" xmlns="http://www.w3.org/2000/svg">
<g style="mix-blend-mode:difference">
<path d="M110.17 73.4343L75.7291 53.5516L0 97.2489V87.2502L67.0583 48.5491L31.6675 28.1311L40.3447 23.1222L75.7291 43.5466L84.3935 48.5491L110.164 63.4165L110.17 73.4343Z" fill="#78EAF1"/>
<path d="M142.609 90.7883L142.616 50.9495L66.6461 7.16447L75.3444 2.1519L142.616 40.9307L142.609 0L151.314 5.01896L151.307 45.9433V55.962V85.7629L142.609 90.7883Z" fill="#78EAF1"/>
<path d="M143.493 127.257L177.963 107.338V19.7218L186.632 24.7303V102.323L222.04 81.8423V91.8848L186.632 112.347L177.963 117.362L152.181 132.272L143.493 127.257Z" fill="#78EAF1"/>
<path d="M112.55 146.566L146.998 166.449L222.72 122.751V132.75L155.662 171.451L191.059 191.869L182.382 196.878L146.998 176.454L138.333 171.451L112.563 156.577L112.55 146.566Z" fill="#78EAF1"/>
<path d="M80.1111 129.212V169.044L156.074 212.836L147.382 217.848L80.1047 179.069L80.1111 220L71.4064 214.981L71.4128 174.057V164.038V134.231L80.1111 129.212Z" fill="#78EAF1"/>
<path d="M79.2271 92.7214L44.7602 112.586V199.938L36.0909 194.939V117.586L0.679932 137.999V127.993L36.0909 107.587L44.7602 102.593L70.545 87.728L79.2271 92.7214Z" fill="#78EAF1"/>
</g>
</svg>
