<svg width="35" height="35" viewBox="0 0 35 35" fill="none" xmlns="http://www.w3.org/2000/svg">
<path d="M18.5216 14.0345H15.5398V24.0807H18.663C18.663 22.4283 18.6552 20.8205 18.6686 19.2137C18.672 18.7725 18.6967 18.3225 18.7887 17.8925C18.9986 16.9113 19.6618 16.458 20.7133 16.5146C21.5797 16.5613 22.1184 17.0313 22.1689 18.0325C22.2576 19.7682 22.2385 21.5083 22.2632 23.2462C22.2665 23.5184 22.2632 23.7906 22.2632 24.0829H25.3437C25.3437 21.7672 25.3516 19.4948 25.3359 17.2236C25.3336 16.8769 25.2495 16.5246 25.1608 16.1868C24.8185 14.879 23.9926 14.0578 22.6268 13.8389C21.0938 13.5933 19.7168 13.8389 18.718 15.1634C18.6922 15.1979 18.6305 15.2045 18.5205 15.2523V14.0345H18.5216Z" fill="white"/>
<path d="M10.3203 24.0896H13.4367V14.0435H10.3203V24.0896Z" fill="white"/>
<path d="M11.8881 12.5756C12.897 12.5723 13.7083 11.7844 13.7229 10.7922C13.7375 9.7832 12.9048 8.95871 11.878 8.96537C10.841 8.97204 10.033 9.78431 10.0498 10.8033C10.0655 11.7922 10.8814 12.5789 11.8892 12.5756H11.8881Z" fill="white"/>
<path d="M18.5216 14.0344V15.2522C18.6316 15.2045 18.6933 15.1967 18.7192 15.1633C19.718 13.8399 21.0938 13.5944 22.6279 13.8388C23.9948 14.0577 24.8197 14.8789 25.162 16.1867C25.2506 16.5257 25.3348 16.8779 25.337 17.2235C25.3528 19.4958 25.3449 21.7671 25.3449 24.0828H22.2643C22.2643 23.7894 22.2677 23.5172 22.2643 23.2461C22.2396 21.5082 22.2587 19.767 22.1701 18.0324C22.1196 17.0312 21.5809 16.5612 20.7145 16.5145C19.6618 16.4579 18.9997 16.9112 18.7899 17.8924C18.6978 18.3224 18.6731 18.7725 18.6698 19.2136C18.6563 20.8204 18.6642 22.4283 18.6642 24.0806H15.541V14.0344H18.5228H18.5216Z" fill="#17293A"/>
<path d="M10.3203 24.0896V14.0435H13.4367V24.0896H10.3203Z" fill="#17293A"/>
<path d="M11.888 12.5756C10.8802 12.5789 10.0644 11.7933 10.0487 10.8033C10.0318 9.78431 10.841 8.97204 11.8768 8.96537C12.9048 8.95871 13.7364 9.7832 13.7218 10.7922C13.7072 11.7833 12.8969 12.5723 11.8869 12.5756H11.888Z" fill="#17293A"/>
<rect x="2.23779" y="2.82129" width="30.5" height="30.5" rx="6.25" stroke="#17293A" stroke-width="1.5"/>
</svg>
