<svg width="197" height="21" viewBox="0 0 197 21" fill="none" xmlns="http://www.w3.org/2000/svg">
<path d="M0 3.23712H6.77349V19.7492H9.84738V3.23712H16.5937V0.516846H0V3.23712Z" fill="#6BC8C4"/>
<path d="M34.5201 2.96512C33.6225 2.04023 32.5887 1.30575 31.3918 0.816102C30.1949 0.299251 28.8892 0.0272217 27.5291 0.0272217C26.1689 0.0272217 24.8632 0.299251 23.6663 0.816102C22.4694 1.33295 21.4356 2.06743 20.538 2.96512C19.6403 3.89001 18.9602 4.97812 18.4705 6.17504C17.9809 7.39916 17.7361 8.70489 17.7361 10.1194C17.7361 11.534 17.9809 12.8397 18.4978 14.0366C18.9874 15.2607 19.6947 16.3488 20.5652 17.2737C21.4357 18.1986 22.4966 18.9331 23.6935 19.4499C24.8904 19.9668 26.1961 20.2388 27.5563 20.2388C28.9164 20.2388 30.2221 19.9668 31.419 19.4499C32.616 18.9331 33.6497 18.1986 34.5474 17.2737C35.445 16.3488 36.1251 15.2607 36.642 14.0366C37.1316 12.8125 37.4036 11.5068 37.4036 10.1194C37.4036 8.73209 37.1588 7.39916 36.642 6.17504C36.1523 4.95092 35.445 3.89001 34.5474 2.96512M27.5563 17.3281C26.2233 17.3281 25.0536 17.0017 24.0471 16.3488C23.0678 15.696 22.2789 14.7983 21.7349 13.7102C21.1908 12.6221 20.9188 11.398 20.9188 10.0922C20.9188 8.78649 21.1908 7.53517 21.7349 6.44706C22.2789 5.35895 23.0406 4.48847 24.0471 3.8356C25.0264 3.18274 26.2233 2.8563 27.5563 2.8563C28.8892 2.8563 30.0861 3.18274 31.0926 3.8356C32.0719 4.48847 32.8608 5.35895 33.4048 6.44706C33.9489 7.53517 34.2209 8.75929 34.2209 10.0922C34.2209 11.4252 33.9489 12.6221 33.3776 13.7102C32.8336 14.7983 32.0447 15.696 31.0654 16.3488C30.0861 17.0017 28.8892 17.3281 27.5563 17.3281Z" fill="#6BC8C4"/>
<path d="M54.1334 11.7244C54.1334 12.8397 53.9974 13.819 53.7253 14.6622C53.4533 15.4783 52.9909 16.1312 52.338 16.5936C51.6851 17.0561 50.7331 17.2737 49.5361 17.2737C48.3392 17.2737 47.3871 17.0289 46.7342 16.5936C46.0814 16.1312 45.5917 15.4783 45.3197 14.6622C45.0477 13.819 44.9117 12.8125 44.9117 11.7244V0.516846H41.8378V12.3772C41.8378 13.8462 42.1098 15.1791 42.6538 16.3488C43.1979 17.5457 44.0684 18.4978 45.2109 19.1779C46.3534 19.8852 47.8224 20.2116 49.5633 20.2116C51.3043 20.2116 52.7733 19.858 53.8886 19.1779C55.0039 18.4706 55.8744 17.5185 56.4184 16.3488C56.9625 15.1791 57.2345 13.8462 57.2345 12.3772V0.516846H54.1606V11.7244H54.1334Z" fill="#6BC8C4"/>
<path d="M67.8979 3.83552C68.85 3.18265 70.0197 2.85622 71.3526 2.85622C72.3047 2.85622 73.1208 3.01944 73.7736 3.31867C74.4265 3.6179 74.9978 3.99874 75.4602 4.43398C75.9227 4.86922 76.3035 5.30447 76.5755 5.73971L76.6843 5.90292L78.8877 4.02594L78.8061 3.88992C78.4525 3.34587 77.9357 2.77461 77.2828 2.20335C76.6299 1.60489 75.8138 1.11524 74.8346 0.707204C73.8553 0.299163 72.6583 0.081543 71.3254 0.081543C69.8837 0.081543 68.5779 0.353572 67.381 0.870424C66.2113 1.38727 65.1776 2.12175 64.3343 3.07385C63.491 3.99874 62.811 5.08684 62.3485 6.31096C61.8861 7.53508 61.6685 8.84081 61.6685 10.2281C61.6685 12.1323 62.0765 13.8461 62.8654 15.3423C63.6542 16.8384 64.7968 18.0625 66.2657 18.933C67.7074 19.8035 69.394 20.2387 71.271 20.2387C72.6039 20.2387 73.8008 20.0211 74.8346 19.5587C75.8411 19.0962 76.7115 18.5794 77.3644 17.9809C78.0445 17.3825 78.5341 16.8384 78.8061 16.4032L78.8877 16.2671L76.7388 14.4718L76.6299 14.6078C76.3851 14.8798 76.0587 15.2334 75.6234 15.6687C75.2154 16.1039 74.6441 16.4848 73.9641 16.8384C73.284 17.192 72.3591 17.3553 71.271 17.3553C69.9653 17.3553 68.8228 17.0288 67.8979 16.4032C66.9458 15.7775 66.2113 14.907 65.6673 13.8189C65.1504 12.7308 64.8784 11.5067 64.8784 10.2009C64.8784 8.89522 65.1504 7.61669 65.6673 6.52858C66.1841 5.44047 66.9458 4.54279 67.8979 3.88992" fill="#6BC8C4"/>
<path d="M96.1071 8.40563H86.1237V0.516846H83.0498V19.7492H86.1237V11.1803H96.1071V19.7492H99.181V0.516846H96.1071V8.40563Z" fill="#6BC8C4"/>
<path d="M114.496 9.38497C113.626 8.92252 112.728 8.59609 111.776 8.40567C110.361 8.07924 109.273 7.69839 108.511 7.26315C107.777 6.82791 107.451 6.20225 107.451 5.33176C107.451 4.92372 107.559 4.54288 107.804 4.16205C108.022 3.78121 108.403 3.45478 108.865 3.20996C109.355 2.93793 109.98 2.82912 110.742 2.82912C111.504 2.82912 112.184 2.93793 112.728 3.15555C113.272 3.37317 113.707 3.6452 114.061 3.94443C114.414 4.24366 114.659 4.46128 114.795 4.65169L114.904 4.81491L116.971 2.91072L116.89 2.77471C116.699 2.50269 116.373 2.14905 115.911 1.71381C115.448 1.27857 114.795 0.897723 113.979 0.571291C113.163 0.244858 112.102 0.0544434 110.878 0.0544434C109.491 0.0544434 108.267 0.299269 107.315 0.788917C106.335 1.27857 105.601 1.93142 105.111 2.7475C104.621 3.56359 104.377 4.46127 104.377 5.41337C104.377 6.96392 104.894 8.21525 105.954 9.14014C106.988 10.065 108.321 10.6907 109.953 11.0443C111.422 11.3708 112.565 11.7788 113.326 12.2684C114.061 12.7581 114.414 13.4654 114.414 14.4719C114.414 15.3696 114.088 16.0768 113.435 16.6209C112.782 17.1649 111.83 17.437 110.633 17.437C109.844 17.437 109.137 17.301 108.539 17.0561C107.94 16.8113 107.396 16.4849 106.934 16.104C106.471 15.7232 106.063 15.3151 105.71 14.9343L105.601 14.7983L103.425 16.7841L103.533 16.9201C103.941 17.4098 104.485 17.9266 105.138 18.4707C105.791 18.9875 106.607 19.45 107.532 19.7764C108.457 20.13 109.545 20.2932 110.715 20.2932C111.993 20.2932 113.163 20.0484 114.197 19.5588C115.231 19.0691 116.047 18.3891 116.645 17.5186C117.244 16.6481 117.543 15.6688 117.543 14.5263C117.543 13.2205 117.271 12.1324 116.699 11.3164C116.155 10.5275 115.421 9.87461 114.55 9.41217" fill="#6BC8C4"/>
<path d="M120.1 3.23712H126.873V19.7492H129.947V3.23712H136.693V0.516846H120.1V3.23712Z" fill="#6BC8C4"/>
<path d="M154.62 2.96509C153.722 2.0402 152.689 1.30573 151.492 0.788881C150.295 0.272029 149.016 0 147.629 0C146.242 0 144.963 0.272029 143.766 0.788881C142.569 1.30573 141.536 2.0402 140.638 2.96509C139.74 3.88999 139.06 4.97809 138.571 6.17501C138.081 7.39913 137.836 8.70486 137.836 10.0922C137.836 11.4795 138.081 12.8125 138.571 14.0366C139.06 15.2607 139.767 16.3488 140.638 17.2737C141.508 18.1986 142.569 18.9331 143.766 19.4499C144.963 19.9668 146.242 20.2388 147.629 20.2388C149.016 20.2388 150.295 19.9668 151.492 19.4499C152.689 18.9331 153.722 18.1986 154.62 17.2737C155.518 16.3488 156.198 15.2607 156.715 14.0366C157.232 12.8125 157.476 11.5067 157.476 10.0922C157.476 8.67766 157.232 7.37193 156.715 6.17501C156.198 4.97809 155.518 3.88999 154.62 2.96509ZM154.266 10.0922C154.266 11.3979 153.994 12.6221 153.45 13.7102C152.906 14.7983 152.117 15.696 151.138 16.3488C150.159 17.0017 148.989 17.3281 147.656 17.3281C146.323 17.3281 145.154 17.0017 144.147 16.3488C143.168 15.696 142.379 14.7983 141.835 13.7102C141.291 12.6221 141.019 11.3979 141.019 10.0922C141.019 8.78647 141.291 7.53514 141.835 6.44704C142.379 5.35893 143.141 4.48844 144.147 3.83558C145.126 3.18271 146.296 2.85628 147.656 2.85628C149.016 2.85628 150.186 3.18271 151.193 3.83558C152.172 4.48844 152.961 5.35893 153.505 6.44704C154.049 7.53514 154.321 8.75926 154.321 10.0922" fill="#6BC8C4"/>
<path d="M175.131 14.8799L165.093 0.516846H162.074V19.7492H165.093V5.35893L175.158 19.7492H178.15V0.516846H175.131V14.8799Z" fill="#6BC8C4"/>
<path d="M186.583 16.9473V11.1803H193.493V8.40563H186.583V3.26432H195.75V0.516846H183.509V19.7492H196.431V16.9473H186.583Z" fill="#6BC8C4"/>
</svg>
